<svg version="1.1" xmlns="http://www.w3.org/2000/svg" xmlns:xlink="http://www.w3.org/1999/xlink" viewBox="0 0 500 96" style="enable-background:new 0 0 500 96;" xml:space="preserve">
<g>
	<path d="M210.6,6.4c-23.6,0-42.4,16.9-42.4,40.6c0,23.9,18.8,40.6,42.4,40.6
		c23.7,0,42.6-16.7,42.6-40.6C253.2,23.2,234.3,6.4,210.6,6.4z M210.6,71.1c-12.5,0-22.9-9.7-22.9-24.2c0-14.3,10.5-24.2,22.9-24.2
		c12.6,0,23.1,9.9,23.1,24.2C233.7,61.4,223.3,71.1,210.6,71.1z"/>
	<path d="M303.9,6.4c-23.6,0-42.4,16.9-42.4,40.6c0,23.9,18.8,40.6,42.4,40.6
		c23.7,0,42.6-16.7,42.6-40.6C346.4,23.2,327.6,6.4,303.9,6.4z M303.9,71.1c-12.5,0-22.9-9.7-22.9-24.2c0-14.3,10.5-24.2,22.9-24.2
		c12.6,0,23.1,9.9,23.1,24.2C327,61.4,316.5,71.1,303.9,71.1z"/>
	<path d="M482.4,64.3c-6.2,0-11.2,5-11.2,11.2s5,11.2,11.2,11.2s11.2-5,11.2-11.2
		C493.5,69.3,488.5,64.3,482.4,64.3z"/>
	<path d="M47.8,6.4C24.5,6.4,8.4,23.1,8.4,47c0,22,16,40.6,41.6,40.6c13.3,0,23.1-5.6,27.8-9
		c1.9-1.4,2.5-4.1,1.2-6.1L75.7,67c-1.4-2.2-4.3-2.9-6.5-1.5c-3.8,2.5-10.3,5.8-17.9,5.8c-11.4,0-21.2-7.2-23.1-20.2
		c-0.1-0.5,0.3-1.5,0.8-1.5h46.7c3.5,0,6.4-2.3,6.4-5.9c0-0.3,0-0.3,0-0.6C82.2,22.4,70,6.4,47.8,6.4z M61.6,37.2H29.8
		c-0.5,0-0.9-0.6-0.8-1.1c2.4-9.1,9.2-14.8,18.8-14.8c7.7,0,13.9,6.1,14.5,14.9C62.4,36.7,62,37.2,61.6,37.2z"/>
	<path d="M156.8,60.5h-11.1c-1.8,0-2,2.1-2,3.8v0.5c0,2.3-1.9,3.4-4.1,3.4h-17h-1.4
		c-2,0-3.1-2.4-1.9-3.9c0.7-0.9,1.5-2,2.5-3.1l32.8-40.6c1.6-1.9,2-4.2,2-6.7c0-3.7-3-6.6-6.7-6.6h-49.2c-7.3,0-10.2,3-10.2,10.1
		v10.9c0,1.9,0.6,3.4,2.5,3.4h11.5c1.5,0,2.6-1.2,2.6-2.7v-1.3c0-2.3,2-3.7,4.2-3.7c0,0,11.4,0,15.9,0c1.4,0,3.4,1.3,0.9,4.1
		C127,29.3,92,72.2,92,72.2c-1.2,1.5-1.6,3.2-1.6,5v0.1c0,4.1,2.4,7.6,6.5,7.6h53.3c7.1,0,10.1-3.3,10.1-10.6v-9.8
		C160.3,62.6,158.6,60.5,156.8,60.5z"/>
	<path d="M425.1,6.4c-7.9,0-15.3,3.1-20.8,8.1c-5.2-5-11.7-8.1-19.7-8.1c-16.6,0-30,13.5-30,29.5v44.6
		c0,3.1,2.5,5.5,5.5,5.5h6.7c3,0,5.5-2.5,5.5-5.5V35.9c0-5.6,6.1-10.7,12.3-10.7c5.9,0,11,4.6,11,10.5V81c0,3.1,2.5,5.5,5.5,5.5h6.7
		c3,0,5.5-2.5,5.5-5.5V35.9c0-5.6,6.1-10.7,12.3-10.7c5.9,0,11,4.6,11,10.5v44.8c0,3.1,2.5,5.5,5.5,5.5h6.7c3,0,5.5-2.5,5.5-5.5
		V35.7C454.4,19.2,441.5,6.4,425.1,6.4z"/>
</g>
</svg>
